<?xml version="1.0" encoding="UTF-8"?>
<svg version="1.1" xmlns="http://www.w3.org/2000/svg" width="512" height="512">
<path d="M0 0 C1.2599881 -0.00785522 2.5199762 -0.01571045 3.81814575 -0.02380371 C88.4827017 -0.43375826 88.4827017 -0.43375826 116.09765625 24.25 C120.56021663 29.40420987 121.37617387 34.26101097 121.32518005 40.89448547 C121.33325836 42.16059317 121.33325836 42.16059317 121.34149987 43.45227879 C121.35577812 46.27342967 121.348676 49.09411125 121.34155273 51.9152832 C121.34725645 53.94095232 121.35422071 55.96661822 121.36235046 57.99227905 C121.38029891 63.49033291 121.37911003 68.9882273 121.37340808 74.48630166 C121.37031802 79.07865269 121.37640681 83.67097301 121.38244683 88.26331967 C121.39649661 99.0999702 121.39492757 109.93654191 121.38354492 120.77319336 C121.37206898 131.94538637 121.38612964 143.11733918 121.4129414 154.28950053 C121.43511049 163.88715215 121.44173286 173.48472844 121.43586498 183.08240384 C121.43249643 188.81208272 121.43490364 194.54160772 121.45211601 200.27126503 C121.46760172 205.6615305 121.46361129 211.05144083 121.44481087 216.44169235 C121.44112922 218.4165242 121.44422105 220.39138246 121.45469666 222.36618996 C121.4679377 225.06938775 121.45633168 227.77141527 121.43870544 230.4745636 C121.44831045 231.2496816 121.45791546 232.02479961 121.46781152 232.82340604 C121.36360515 240.6304997 118.31916694 247.80685062 113.0078125 253.55859375 C91.60333668 272.33799235 60.84471439 277.41520648 33.4375 280.5625 C32.73915039 280.64661133 32.04080078 280.73072266 31.32128906 280.81738281 C23.13012107 281.6708604 15.30214672 281.375 6.9375 281.375 C6.9375 309.755 6.9375 338.135 6.9375 367.375 C8.5875 367.705 10.2375 368.035 11.9375 368.375 C14.10546875 369.86328125 14.10546875 369.86328125 16.125 371.6875 C16.79917969 372.28175781 17.47335937 372.87601562 18.16796875 373.48828125 C20.8975078 376.39858448 21.9375 378.36667667 21.9375 382.375 C22.66141088 382.37223462 23.38532175 382.36946924 24.13116932 382.36662006 C41.73222937 382.30041418 59.33325786 382.25074575 76.93441486 382.21956348 C85.44614949 382.2040838 93.95780108 382.18297331 102.46948242 382.14868164 C109.88685145 382.11881291 117.30416035 382.09943301 124.72158784 382.09273452 C128.65036248 382.08881794 132.57896511 382.0795908 136.50768471 382.05780983 C140.20371185 382.03748446 143.8994957 382.03115811 147.59557343 382.03567696 C149.60247902 382.03445493 151.60935797 382.01829217 153.61619568 382.0017395 C154.80671539 382.00586349 155.99723511 382.00998749 157.22383118 382.01423645 C158.26084828 382.01147107 159.29786539 382.00870569 160.36630726 382.00585651 C162.9375 382.375 162.9375 382.375 164.77205658 383.74212646 C166.47365852 386.12619826 166.29767395 387.94919804 166.27807617 390.85620117 C166.27784958 391.97713669 166.27762299 393.0980722 166.27738953 394.25297546 C166.26190567 395.46242325 166.24642181 396.67187103 166.23046875 397.91796875 C166.22622391 399.15670242 166.22197906 400.3954361 166.21760559 401.67170715 C166.20364733 404.96149001 166.17670213 408.25083203 166.14349365 411.54046631 C166.11277933 414.89866746 166.09909739 418.25693318 166.08398438 421.61523438 C166.05087359 428.20199574 166.00064257 434.7884618 165.9375 441.375 C166.49753723 441.36845398 167.05757446 441.36190796 167.63458252 441.35516357 C170.21991152 441.32886758 172.80521223 441.31282028 175.390625 441.296875 C176.27121582 441.28640137 177.15180664 441.27592773 178.05908203 441.26513672 C189.0082562 441.21467969 200.55173924 442.30186069 209.9375 448.375 C212.54685084 451.24715306 213.31514983 453.09502654 213.34155273 456.95654297 C213.36057899 458.30847244 213.36057899 458.30847244 213.37998962 459.68771362 C213.37558617 461.13780319 213.37558617 461.13780319 213.37109375 462.6171875 C213.3763356 463.61831573 213.38157745 464.61944397 213.38697815 465.65090942 C213.39339758 467.76742628 213.39206239 469.88397882 213.38354492 472.00048828 C213.37504879 475.23144476 213.40377597 478.46062504 213.43554688 481.69140625 C213.43715939 483.74999947 213.43658039 485.80859581 213.43359375 487.8671875 C213.44482773 488.82986542 213.45606171 489.79254333 213.46763611 490.78439331 C213.4073116 496.62068391 212.79732886 499.91566008 208.9375 504.375 C197.94743687 511.39811585 181.98747291 512.50659965 169.22265625 512.578125 C168.40864853 512.58382507 167.59464081 512.58952515 166.75596619 512.59539795 C165.03906529 512.60479096 163.32214683 512.61135907 161.60522461 512.61523438 C159.03790851 512.6248579 156.47142302 512.65590156 153.90429688 512.6875 C138.94880725 512.78376452 120.85827043 512.79764781 109.34912109 501.93115234 C105.87554302 497.66677773 106.21760866 493.1952232 106.2734375 487.90234375 C106.26865387 486.90167374 106.26387024 485.90100372 106.25894165 484.87001038 C106.25554889 482.76122459 106.26470747 480.65238575 106.28564453 478.54370117 C106.31244634 475.31895686 106.28586012 472.09768424 106.25390625 468.87304688 C106.25720991 466.82030483 106.26361522 464.76756495 106.2734375 462.71484375 C106.26331635 461.75327866 106.25319519 460.79171356 106.24276733 459.80101013 C106.32396701 455.15797138 106.39952361 453.06083934 109.34204102 449.30957031 C121.39135684 440.32840405 139.74209323 441.375 153.9375 441.375 C153.9375 425.865 153.9375 410.355 153.9375 394.375 C110.3775 394.375 66.8175 394.375 21.9375 394.375 C21.6075 396.025 21.2775 397.675 20.9375 399.375 C17.53434018 404.4281767 13.88777932 407.72266035 7.9375 409.375 C0.96908364 410.17185508 -6.19027483 410.50398884 -12.375 406.78515625 C-15.54285094 404.13794747 -18.09527943 401.00392582 -20.0625 397.375 C-20.0625 396.385 -20.0625 395.395 -20.0625 394.375 C-63.6225 394.375 -107.1825 394.375 -152.0625 394.375 C-152.0625 409.885 -152.0625 425.395 -152.0625 441.375 C-145.4625 441.375 -138.8625 441.375 -132.0625 441.375 C-111.78851742 444.27128323 -111.78851742 444.27128323 -106.38952637 450.21755981 C-104.86634964 452.69389545 -104.67330999 454.07212244 -104.64257812 456.95654297 C-104.61871033 458.30847244 -104.61871033 458.30847244 -104.59436035 459.68771362 C-104.59415894 460.65444 -104.59395752 461.62116638 -104.59375 462.6171875 C-104.58232971 464.11887985 -104.58232971 464.11887985 -104.57067871 465.65090942 C-104.55988013 467.76741036 -104.55702361 469.88396458 -104.56152344 472.00048828 C-104.5624945 475.23170365 -104.52089524 478.46053447 -104.4765625 481.69140625 C-104.47135438 483.74999506 -104.46866732 485.8085921 -104.46875 487.8671875 C-104.45235474 488.82986542 -104.43595947 489.79254333 -104.41906738 490.78439331 C-104.46500552 495.26490265 -104.58134646 498.38799592 -107.47460938 501.94702148 C-117.73811416 511.57631913 -135.30743108 512.50264878 -148.77734375 512.578125 C-149.59135147 512.58382507 -150.40535919 512.58952515 -151.24403381 512.59539795 C-152.96093471 512.60479096 -154.67785317 512.61135907 -156.39477539 512.61523438 C-158.96209149 512.6248579 -161.52857698 512.65590156 -164.09570312 512.6875 C-179.05119275 512.78376452 -197.14172957 512.79764781 -208.65087891 501.93115234 C-212.12445698 497.66677773 -211.78239134 493.1952232 -211.7265625 487.90234375 C-211.73134613 486.90167374 -211.73612976 485.90100372 -211.74105835 484.87001038 C-211.74445111 482.76122459 -211.73529253 480.65238575 -211.71435547 478.54370117 C-211.68755366 475.31895686 -211.71413988 472.09768424 -211.74609375 468.87304688 C-211.74279009 466.82030483 -211.73638478 464.76756495 -211.7265625 462.71484375 C-211.73668365 461.75327866 -211.74680481 460.79171356 -211.75723267 459.80101013 C-211.67603299 455.15797138 -211.60047639 453.06083934 -208.65795898 449.30957031 C-197.90514006 441.29477047 -182.19441746 441.31009675 -169.24609375 441.35644531 C-168.2708374 441.35912415 -167.29558105 441.36180298 -166.29077148 441.36456299 C-165.55544189 441.3680072 -164.8201123 441.37145142 -164.0625 441.375 C-164.06916183 440.68008957 -164.07582367 439.98517914 -164.08268738 439.26921082 C-164.14278937 432.72150491 -164.18846959 426.17387593 -164.21793652 419.62595654 C-164.23359511 416.25955123 -164.25483621 412.89337377 -164.28881836 409.52709961 C-164.32511749 405.65732751 -164.3422075 401.78787974 -164.35546875 397.91796875 C-164.37869453 396.10379707 -164.37869453 396.10379707 -164.40238953 394.25297546 C-164.40261612 393.13203995 -164.40284271 392.01110443 -164.40307617 390.85620117 C-164.40973801 389.86802902 -164.41639984 388.87985687 -164.42326355 387.86174011 C-164.0625 385.375 -164.0625 385.375 -162.89705658 383.74212646 C-160.32565148 381.8258945 -158.5388706 382.00572968 -155.34883118 382.01423645 C-153.56305161 382.00805046 -153.56305161 382.00805046 -151.74119568 382.0017395 C-150.43352737 382.01252533 -149.12585907 382.02331116 -147.77856445 382.03442383 C-146.38897724 382.03526996 -144.99938868 382.03479523 -143.60980225 382.03309631 C-139.83518974 382.03223438 -136.06086232 382.04989196 -132.28631616 382.07081819 C-128.34251866 382.0895521 -124.39871488 382.09133283 -120.45487976 382.09489441 C-112.98568902 382.10422456 -105.51662977 382.1288514 -98.04749697 382.15894288 C-89.54458476 382.19245676 -81.04166632 382.20896531 -72.53870451 382.22402918 C-55.04656025 382.25540016 -37.55454402 382.30817944 -20.0625 382.375 C-19.9281958 381.59471436 -19.7938916 380.81442871 -19.65551758 380.01049805 C-18.9578646 376.90997771 -17.86565658 375.52967227 -15.75 373.1875 C-14.85861328 372.17623047 -14.85861328 372.17623047 -13.94921875 371.14453125 C-11.03891552 368.4149922 -9.07082333 367.375 -5.0625 367.375 C-5.0625 338.995 -5.0625 310.615 -5.0625 281.375 C-10.6725 281.375 -16.2825 281.375 -22.0625 281.375 C-26.41199654 281.06085551 -30.67846856 280.70072146 -35 280.1875 C-36.13751709 280.05512939 -37.27503418 279.92275879 -38.44702148 279.78637695 C-64.98765536 276.5311694 -97.17308511 272.48049149 -116.0625 251.375 C-120.61953906 244.72361735 -122.211346 239.24357363 -122.21640015 231.20954895 C-122.22297353 229.94622782 -122.22297353 229.94622782 -122.2296797 228.65738505 C-122.24307397 225.82472907 -122.24924799 222.9921042 -122.25537109 220.15942383 C-122.26327157 218.1325771 -122.27154049 216.10573178 -122.28015137 214.07888794 C-122.30637805 207.41328272 -122.32167981 200.7476712 -122.3359375 194.08203125 C-122.34129694 191.7880878 -122.34667445 189.4941444 -122.35206985 187.20020103 C-122.37369966 177.65839209 -122.39243656 168.11658484 -122.40369225 158.57475758 C-122.4199325 144.89694014 -122.45311125 131.21940673 -122.51009309 117.54169637 C-122.54878632 107.92630375 -122.56832423 98.31098711 -122.57361281 88.69551867 C-122.57726712 82.95178364 -122.5892973 77.2083515 -122.62171555 71.4647007 C-122.65178494 66.05968698 -122.65811181 60.65515962 -122.64633179 55.25008011 C-122.64611096 53.26836141 -122.65442358 51.28662022 -122.67198563 49.30497932 C-122.69469542 46.59452567 -122.68637421 43.88583295 -122.67050171 41.17536926 C-122.69132484 40.00525345 -122.69132484 40.00525345 -122.71256864 38.81149894 C-122.61330739 31.90916865 -119.73992101 27.13830055 -114.9921875 22.23828125 C-99.23623741 10.34643299 -79.20319292 6.31097962 -60.0625 3.375 C-59.1048877 3.22256836 -58.14727539 3.07013672 -57.16064453 2.91308594 C-38.19687858 0.05540534 -19.13850482 0.05840621 0 0 Z " fill="#000000" transform="translate(255.0625,-0.375)"/>
<path d="M0 0 C1.09164459 0.48378616 2.18328918 0.96757233 3.30801392 1.46601868 C4.75818663 2.10547732 6.20841543 2.74480878 7.65869141 3.3840332 C8.37605972 3.70235359 9.09342804 4.02067398 9.83253479 4.34864044 C15.24769617 6.73099784 20.64306521 8.69842085 26.375 10.1875 C27.28797852 10.42887695 28.20095703 10.67025391 29.14160156 10.91894531 C80.73765046 23.97881479 141.76987764 23.0865923 193.25 10.1875 C194.11729736 9.97577148 194.98459473 9.76404297 195.87817383 9.54589844 C201.49550833 8.03970502 206.61240633 5.87475538 211.84667969 3.3840332 C212.53708344 3.05853737 213.22748718 2.73304153 213.93881226 2.39768219 C215.62717747 1.60121028 217.3137723 0.80098734 219 0 C219.09345172 23.21776718 219.16398338 46.43550333 219.20724869 69.65342045 C219.2278717 80.43396861 219.25598742 91.2143999 219.30175781 101.99487305 C219.34163343 111.39141001 219.36743471 120.78786233 219.37635398 130.18448156 C219.38156747 135.15970078 219.39381582 140.13467783 219.42292023 145.10981941 C219.4501007 149.79409896 219.45843964 154.47803693 219.45243073 159.16238785 C219.45352978 160.8800651 219.46146803 162.59775395 219.4768219 164.31536293 C219.49679163 166.6648874 219.49191462 169.01313062 219.48101807 171.36268616 C219.48470524 172.67624116 219.48839241 173.98979616 219.49219131 175.34315586 C218.5682933 182.20746032 214.76201847 186.9186158 209.5078125 191.2421875 C199.67050555 198.13749611 188.50217927 201.93976243 177 205 C176.32549805 205.18159668 175.65099609 205.36319336 174.95605469 205.55029297 C126.85549671 218.16327744 59.14270523 218.85398423 14.4375 194.6875 C8.36232116 190.9302613 2.3156854 185.9470562 0 179 C-0.09269327 176.61603267 -0.12192405 174.22947233 -0.12025452 171.84370422 C-0.12110894 171.11018508 -0.12196337 170.37666593 -0.12284368 169.62091893 C-0.12449428 167.15651572 -0.11898397 164.69218017 -0.11352539 162.2277832 C-0.1132434 160.46381634 -0.11340148 158.69984936 -0.1139679 156.93588257 C-0.11425542 152.14074836 -0.10836599 147.34563905 -0.10139394 142.55051064 C-0.09515287 137.54166556 -0.094556 132.53281993 -0.09336853 127.52397156 C-0.09025744 118.03612831 -0.08204704 108.54829655 -0.07201904 99.06045836 C-0.06085102 88.26011216 -0.05534571 77.45976542 -0.05032361 66.65941489 C-0.03986425 44.43960351 -0.02226909 22.21980248 0 0 Z " fill="#FDDA40" transform="translate(145,57)"/>
<path d="M0 0 C3.59632059 1.34395372 4.04779004 1.43520374 7.875 0 C9.03 -0.556875 10.185 -1.11375 11.375 -1.6875 C17.81510288 -2.73942243 23.08023474 -1.46309211 28.375 2.3125 C32.3165576 5.75467474 34.45874976 9.02785319 35.875 14.0625 C36.92601342 17.8177174 36.92601342 17.8177174 40.25 20.0625 C41.28125 20.475 42.3125 20.8875 43.375 21.3125 C48.42466359 25.52055299 51.97937 30.5039019 52.66796875 37.1328125 C52.73951172 38.58300781 52.73951172 38.58300781 52.8125 40.0625 C52.92690446 44.26576372 52.92690446 44.26576372 55.5625 47.375 C56.490625 48.014375 57.41875 48.65375 58.375 49.3125 C64.20000293 57.49320264 67.56911224 65.1774724 66.375 75.3125 C64.64561672 81.90577377 61.59489589 87.80847555 56.375 92.3125 C55.715 92.3125 55.055 92.3125 54.375 92.3125 C54.42140625 92.9415625 54.4678125 93.570625 54.515625 94.21875 C54.78194601 100.53436243 54.12711321 105.12439285 50.375 110.3125 C47.68075189 113.21865527 44.84510471 115.10970973 41.1875 116.6875 C37.37507379 118.89023514 36.95040897 121.27123351 35.375 125.3125 C31.72617146 130.44058335 28.35151025 132.85444624 22.5 135 C15.93219232 135.96585407 11.9092031 135.56425721 6.234375 132.1875 C4.11428248 131.02863531 4.11428248 131.02863531 0.375 131.3125 C-0.97835895 132.28522675 -2.31162604 133.2864266 -3.625 134.3125 C-8.05014411 136.05094947 -13.19836367 136.06684762 -17.7109375 134.6640625 C-22.86419675 132.35398077 -26.57365728 129.07052594 -29.625 124.3125 C-29.893125 123.28125 -30.16125 122.25 -30.4375 121.1875 C-32.09213203 117.18154876 -34.60522092 116.48078147 -38.3671875 114.59375 C-42.44327263 112.28067747 -44.58924627 109.08807783 -46.9375 105.0625 C-47.9941998 100.83570078 -47.77645415 96.64577146 -47.625 92.3125 C-48.24375 92.02375 -48.8625 91.735 -49.5 91.4375 C-54.69727827 88.68599974 -56.88651113 83.33131548 -58.859375 78.0546875 C-61.21280212 69.62557608 -59.83865092 61.88934019 -55.625 54.3125 C-52.99444092 50.60361775 -50.41485195 47.83906797 -46.625 45.3125 C-46.41234159 43.17373371 -46.41234159 43.17373371 -46.6875 40.75 C-46.8499315 34.11897289 -45.25215891 29.12995614 -40.68359375 24.23046875 C-37.72378127 21.55410056 -35.43873417 19.58374472 -31.625 18.3125 C-30.55708114 16.18661925 -30.55708114 16.18661925 -29.75 13.625 C-27.29323964 7.17485388 -24.73827427 3.12467042 -18.375 -0.0625 C-11.8749943 -2.63452212 -6.47286816 -2.52332149 0 0 Z " fill="#FD5263" transform="translate(251.625,105.6875)"/>
<path d="M0 0 C1.69790493 0.21884108 3.39582074 0.43759774 5.09375 0.65625 C21.07567406 2.87106782 39.67302503 6.73892675 52.1875 17.5 C54 20 54 20 54.5625 23 C53.6264997 27.99200158 50.83860907 30.59660506 46.8125 33.4375 C6.27523372 57.03492325 -59.05267779 53.95414491 -104 48 C-104.99064453 47.87109375 -105.98128906 47.7421875 -107.00195312 47.609375 C-151.41465445 41.57974365 -151.41465445 41.57974365 -163.296875 28.46484375 C-165 26 -165 26 -165.75 23.125 C-164.52314173 18.01309055 -161.2815647 15.82237673 -157 13 C-114.22208113 -11.19456342 -46.67197222 -6.6674246 0 0 Z " fill="#FCA731" transform="translate(310,15)"/>
<path d="M0 0 C3.59632059 1.34395372 4.04779004 1.43520374 7.875 0 C9.03 -0.556875 10.185 -1.11375 11.375 -1.6875 C17.81510288 -2.73942243 23.08023474 -1.46309211 28.375 2.3125 C32.3165576 5.75467474 34.45874976 9.02785319 35.875 14.0625 C36.92601342 17.8177174 36.92601342 17.8177174 40.25 20.0625 C41.28125 20.475 42.3125 20.8875 43.375 21.3125 C48.42466359 25.52055299 51.97937 30.5039019 52.66796875 37.1328125 C52.73951172 38.58300781 52.73951172 38.58300781 52.8125 40.0625 C52.92690446 44.26576372 52.92690446 44.26576372 55.5625 47.375 C56.490625 48.014375 57.41875 48.65375 58.375 49.3125 C64.20000293 57.49320264 67.56911224 65.1774724 66.375 75.3125 C64.64561672 81.90577377 61.59489589 87.80847555 56.375 92.3125 C55.715 92.3125 55.055 92.3125 54.375 92.3125 C54.42140625 92.9415625 54.4678125 93.570625 54.515625 94.21875 C54.78194601 100.53436243 54.12711321 105.12439285 50.375 110.3125 C47.68075189 113.21865527 44.84510471 115.10970973 41.1875 116.6875 C37.37507379 118.89023514 36.95040897 121.27123351 35.375 125.3125 C31.72617146 130.44058335 28.35151025 132.85444624 22.5 135 C15.93219232 135.96585407 11.9092031 135.56425721 6.234375 132.1875 C4.11428248 131.02863531 4.11428248 131.02863531 0.375 131.3125 C-0.97835895 132.28522675 -2.31162604 133.2864266 -3.625 134.3125 C-8.05014411 136.05094947 -13.19836367 136.06684762 -17.7109375 134.6640625 C-22.86419675 132.35398077 -26.57365728 129.07052594 -29.625 124.3125 C-29.893125 123.28125 -30.16125 122.25 -30.4375 121.1875 C-32.09213203 117.18154876 -34.60522092 116.48078147 -38.3671875 114.59375 C-42.44327263 112.28067747 -44.58924627 109.08807783 -46.9375 105.0625 C-47.9941998 100.83570078 -47.77645415 96.64577146 -47.625 92.3125 C-48.24375 92.02375 -48.8625 91.735 -49.5 91.4375 C-54.69727827 88.68599974 -56.88651113 83.33131548 -58.859375 78.0546875 C-61.21280212 69.62557608 -59.83865092 61.88934019 -55.625 54.3125 C-52.99444092 50.60361775 -50.41485195 47.83906797 -46.625 45.3125 C-46.41234159 43.17373371 -46.41234159 43.17373371 -46.6875 40.75 C-46.8499315 34.11897289 -45.25215891 29.12995614 -40.68359375 24.23046875 C-37.72378127 21.55410056 -35.43873417 19.58374472 -31.625 18.3125 C-30.55708114 16.18661925 -30.55708114 16.18661925 -29.75 13.625 C-27.29323964 7.17485388 -24.73827427 3.12467042 -18.375 -0.0625 C-11.8749943 -2.63452212 -6.47286816 -2.52332149 0 0 Z M-17.625 14.3125 C-18.71694645 18.13431259 -19.2246213 20.19891759 -17.3125 23.75 C-15.76371247 25.53896934 -15.76371247 25.53896934 -13.625 25.3125 C-13.625 28.2825 -13.625 31.2525 -13.625 34.3125 C-16.375 35 -16.375 35 -19.625 35.3125 C-21.875 33.875 -21.875 33.875 -23.625 32.3125 C-24.285 32.3125 -24.945 32.3125 -25.625 32.3125 C-25.625 31.6525 -25.625 30.9925 -25.625 30.3125 C-28.16610939 30.65589316 -30.16961398 31.03601563 -32.375 32.375 C-34.36384254 35.45770593 -34.63232696 38.6856537 -34.625 42.3125 C-33.53929716 45.75055898 -32.73112788 46.24174808 -29.625 48.3125 C-27.03270031 48.17179952 -24.55889195 47.73888362 -22 47.30859375 C-19.625 47.3125 -19.625 47.3125 -17.8203125 48.59765625 C-16.625 50.3125 -16.625 50.3125 -16.5 53.3125 C-17.625 56.3125 -17.625 56.3125 -20.8125 58.1875 C-24.51948822 59.28136538 -26.82276538 59.86699255 -30.625 59.3125 C-31.83421551 58.64191055 -33.02137419 57.93049593 -34.1875 57.1875 C-37.37927716 54.99033344 -37.37927716 54.99033344 -40.3125 55.75 C-44.06391278 58.28473837 -46.196331 61.02649299 -47.625 65.3125 C-48.18930864 71.00984689 -47.91086378 75.44035716 -44.625 80.3125 C-40.80678374 83.75820735 -38.37036433 85.45747206 -33.25 85.5 C-32.47914063 85.51417969 -31.70828125 85.52835937 -30.9140625 85.54296875 C-28.39461756 85.2893045 -26.86140421 84.44670909 -24.625 83.3125 C-19.08152174 83.85597826 -19.08152174 83.85597826 -17.625 85.3125 C-17.3125 88.1875 -17.3125 88.1875 -17.625 91.3125 C-20.85704809 94.59290791 -24.45947023 95.14142477 -28.875 96 C-30.13828125 96.25136719 -31.4015625 96.50273437 -32.703125 96.76171875 C-33.66734375 96.94347656 -34.6315625 97.12523437 -35.625 97.3125 C-35.01349304 101.33317814 -35.01349304 101.33317814 -32.5 104.5 C-29.28768087 106.52515771 -26.2597205 107.28380552 -22.625 108.3125 C-20.79799587 111.0530062 -20.32663885 112.18439957 -19.75 115.25 C-18.84976402 118.98151251 -17.96756285 121.14435112 -14.625 123.3125 C-10.19727155 124.05045474 -8.25540487 123.70804815 -4.4375 121.3125 C-2.06969277 119.13836565 -0.90553863 116.99245669 0.375 114.0625 C2.00429139 110.45624415 2.00429139 110.45624415 5.4375 109.125 C8.375 109.3125 8.375 109.3125 10.078125 110.53125 C11.375 112.3125 11.375 112.3125 11.44921875 114.57421875 C11.32160156 115.37472656 11.19398438 116.17523438 11.0625 117 C10.94261719 117.80824219 10.82273437 118.61648437 10.69921875 119.44921875 C10.59222656 120.06410156 10.48523438 120.67898437 10.375 121.3125 C13.58936529 123.45541019 15.54926609 123.61275791 19.33984375 123.7734375 C22.34978341 123.09172372 23.49503095 121.71805179 25.375 119.3125 C26.12276508 116.61082187 26.12276508 116.61082187 26.5 113.75 C27.19921875 110.80078125 27.19921875 110.80078125 28.375 108.3125 C30.91100471 106.96374706 33.17748302 106.46391208 35.98828125 105.9140625 C38.66378371 105.44775549 38.66378371 105.44775549 41 102.8125 C42.61595937 100.34992172 42.61595937 100.34992172 42.375 97.3125 C41.18003906 97.14814453 41.18003906 97.14814453 39.9609375 96.98046875 C28.22227864 95.2239541 28.22227864 95.2239541 24.375 92.3125 C23.375 89.3125 23.375 89.3125 23.375 86.3125 C24.365 84.8275 24.365 84.8275 25.375 83.3125 C32.125 84.1875 32.125 84.1875 34.375 85.3125 C39.27133308 85.84968762 43.2427559 85.83668708 47.75 83.75 C52.25573422 79.56610394 54.56632559 75.86175323 54.875 69.75 C54.57167545 63.38018443 50.8879264 59.50307452 46.375 55.3125 C45.323125 55.745625 45.323125 55.745625 44.25 56.1875 C43.30125 56.55875 42.3525 56.93 41.375 57.3125 C40.446875 57.704375 39.51875 58.09625 38.5625 58.5 C33.37967335 59.82111267 28.48766483 58.80369391 23.375 57.3125 C22.6875 54 22.6875 54 22.375 50.3125 C23.55078125 48.54296875 23.55078125 48.54296875 25.375 47.3125 C27.6796875 47.4140625 27.6796875 47.4140625 30.25 47.9375 C34.5976395 48.51557702 34.5976395 48.51557702 38.5 46.3125 C40.86470763 42.52896779 41.14538532 40.70369635 40.375 36.3125 C38.90124829 33.99515249 37.31173016 32.29764841 35.375 30.3125 C32.41324877 30.92527612 30.99441217 31.56622522 28.375 33.3125 C25.05259676 32.9883631 23.76723697 32.70473697 21.375 30.3125 C21.72799007 26.87084679 22.42081692 25.24377462 24.375 22.3125 C25.01539015 18.1957062 24.52240698 16.56124927 22.375 12.9375 C19.27541884 10.22536648 18.87771854 9.9375 15.0625 9.9375 C13.2371875 10.123125 13.2371875 10.123125 11.375 10.3125 C9.87564475 13.3112105 10.85027393 15.89260635 11.4140625 19.12109375 C11.375 21.3125 11.375 21.3125 10.09765625 23.1171875 C8.375 24.3125 8.375 24.3125 5.1875 24 C4.259375 23.773125 3.33125 23.54625 2.375 23.3125 C2.21644531 22.70921875 2.05789062 22.1059375 1.89453125 21.484375 C0.76025298 17.59900191 -0.17444401 14.82563321 -2.875 11.75 C-8.59136701 8.76189906 -13.37680479 9.43957021 -17.625 14.3125 Z " fill="#040201" transform="translate(251.625,105.6875)"/>
<path d="M0 0 C8 1.9375 8 1.9375 10.46875 2.54272461 C11.1390625 2.70264893 11.809375 2.86257324 12.5 3.02734375 C13.1703125 3.18968506 13.840625 3.35202637 14.53125 3.51928711 C22.86881325 5.1427703 31.15936474 5.2187546 39.62329102 5.24023438 C41.90093872 5.24984572 44.17764487 5.28089299 46.45507812 5.3125 C56.94232277 5.38683637 66.74388123 4.13940773 77 2 C78.66659837 1.66632535 80.33323267 1.33282964 82 1 C82.14500644 4.60374463 82.23396763 8.20674242 82.3125 11.8125 C82.35439453 12.83666016 82.39628906 13.86082031 82.43945312 14.91601562 C82.48491574 17.68923536 82.45895549 20.26424256 82 23 C78.78392702 26.21009515 74.69667792 26.73147214 70.3125 27.625 C69.17425781 27.86476563 68.03601563 28.10453125 66.86328125 28.3515625 C57.72362181 29.88562061 48.65450003 30.21416807 39.39770508 30.24023438 C37.3330802 30.24990362 35.26946955 30.28101637 33.20507812 30.3125 C21.4741117 30.40685515 10.64023686 29.32011843 0 24 C0 16.08 0 8.16 0 0 Z " fill="#FCD940" transform="translate(374,470)"/>
<path d="M0 0 C8 1.9375 8 1.9375 10.46875 2.54272461 C11.1390625 2.70264893 11.809375 2.86257324 12.5 3.02734375 C13.1703125 3.18968506 13.840625 3.35202637 14.53125 3.51928711 C22.86881325 5.1427703 31.15936474 5.2187546 39.62329102 5.24023438 C41.90093872 5.24984572 44.17764487 5.28089299 46.45507812 5.3125 C56.94232277 5.38683637 66.74388123 4.13940773 77 2 C78.66659837 1.66632535 80.33323267 1.33282964 82 1 C82.14500644 4.60374463 82.23396763 8.20674242 82.3125 11.8125 C82.35439453 12.83666016 82.39628906 13.86082031 82.43945312 14.91601562 C82.48491574 17.68923536 82.45895549 20.26424256 82 23 C78.78392702 26.21009515 74.69667792 26.73147214 70.3125 27.625 C69.17425781 27.86476563 68.03601563 28.10453125 66.86328125 28.3515625 C57.72362181 29.88562061 48.65450003 30.21416807 39.39770508 30.24023438 C37.3330802 30.24990362 35.26946955 30.28101637 33.20507812 30.3125 C21.4741117 30.40685515 10.64023686 29.32011843 0 24 C0 16.08 0 8.16 0 0 Z " fill="#FCD940" transform="translate(56,470)"/>
<path d="M0 0 C2.5495738 -0.00965291 5.09832121 -0.04073397 7.64770508 -0.07226562 C19.42593255 -0.146953 31.24986985 0.48457576 42.5168457 4.24023438 C42.5168457 4.90023438 42.5168457 5.56023437 42.5168457 6.24023438 C40.6870143 6.89592396 38.8527536 7.5392565 37.0168457 8.17773438 C35.9959082 8.53738281 34.9749707 8.89703125 33.9230957 9.26757812 C27.51045348 11.09871105 21.06121701 11.40282446 14.4230957 11.44335938 C13.29840881 11.45190948 13.29840881 11.45190948 12.15100098 11.46063232 C10.57114034 11.47001723 8.9912607 11.47659015 7.41137695 11.48046875 C5.05033071 11.49009781 2.69018572 11.52115123 0.3293457 11.55273438 C-12.46975447 11.64316134 -24.70266966 10.63930831 -36.4831543 5.24023438 C-36.4831543 4.58023437 -36.4831543 3.92023438 -36.4831543 3.24023438 C-35.02628827 2.92096374 -33.56753078 2.61032603 -32.1081543 2.30273438 C-31.29604492 2.12871094 -30.48393555 1.9546875 -29.6472168 1.77539062 C-19.79543806 0.10910212 -9.96637127 0.02271322 0 0 Z " fill="#F7A330" transform="translate(412.483154296875,452.759765625)"/>
<path d="M0 0 C2.63297592 -0.00966762 5.26515676 -0.04075287 7.89794922 -0.07226562 C19.56221463 -0.14403898 30.8691298 0.51838832 42.03466797 4.24023438 C42.03466797 4.90023438 42.03466797 5.56023437 42.03466797 6.24023438 C39.70307493 6.89295899 37.36969001 7.5374864 35.03466797 8.17773438 C34.38626953 8.36013672 33.73787109 8.54253906 33.06982422 8.73046875 C23.82185375 11.24848051 14.74892098 11.45473099 5.2109375 11.48046875 C3.06713749 11.49008867 0.92433434 11.52114592 -1.21923828 11.55273438 C-13.62022041 11.64895995 -25.57085201 10.47246829 -36.96533203 5.24023438 C-36.96533203 4.58023437 -36.96533203 3.92023438 -36.96533203 3.24023438 C-35.508466 2.92096374 -34.04970852 2.61032603 -32.59033203 2.30273438 C-31.77822266 2.12871094 -30.96611328 1.9546875 -30.12939453 1.77539062 C-20.11923417 0.08231412 -10.12662086 0.0223999 0 0 Z " fill="#F6A330" transform="translate(94.96533203125,452.759765625)"/>
<path d="M0 0 C2.8125 2.4375 2.8125 2.4375 5 5 C5.33 5.33 5.66 5.66 6 6 C6.40038554 10.16400962 6.44184328 12.32250696 4.125 15.875 C1.61333682 18.38666318 0.70615837 18.92153796 -2.8125 19.3125 C-6.7307645 18.92835642 -8.21293267 17.70743683 -11 15 C-12.55024464 11.89951072 -12.28992015 9.42105782 -12 6 C-8.63646389 0.84257796 -6.18392951 -0.72752112 0 0 Z " fill="#7D7D7D" transform="translate(259,378)"/>
</svg>
